ply
format ascii 1.0
element vertex 287
property float x
property float y
property float z
element face 570
property list uchar int vertex_indices
end_header
0.0 1.0 0.0
0.1573460613564738 0.9749279121818236 0.0
0.11126046697815721 0.9749279121818236 0.1112604669781572
9.634667519932435e-18 0.9749279121818236 0.1573460613564738
-0.1112604669781572 0.9749279121818236 0.11126046697815721
-0.1573460613564738 0.9749279121818236 1.926933503986487e-17
-0.11126046697815722 0.9749279121818236 -0.1112604669781572
-2.89040025597973e-17 0.9749279121818236 -0.1573460613564738
0.11126046697815717 0.9749279121818236 -0.11126046697815722
0.30680213417660024 0.9009688679024191 0.0
0.2802776960720889 0.9009688679024191 0.1247876701434816
0.2052906980737803 0.9009688679024191 0.22799841845876165
0.09480707337107236 0.9009688679024191 0.2917861689219157
-0.03206955561271641 0.9009688679024191 0.3051214399843438
-0.15340106708830006 0.9009688679024191 0.26569844213221777
-0.24820814045937248 0.9009688679024191 0.18033376984086225
-0.30009777144485267 0.9009688679024191 0.06378775046315402
-0.30009777144485267 0.9009688679024191 -0.06378775046315395
-0.2482081404593725 0.9009688679024191 -0.18033376984086216
-0.15340106708830026 0.9009688679024191 -0.26569844213221766
-0.03206955561271668 0.9009688679024191 -0.30512143998434377
0.09480707337107228 0.9009688679024191 -0.2917861689219158
0.2052906980737804 0.9009688679024191 -0.22799841845876162
0.28027769607208897 0.9009688679024191 -0.1247876701434816
0.4408738668949674 0.7818314824680298 0.0
0.4212870779866096 0.7818314824680298 0.12994985352983585
0.3642670834112509 0.7818314824680298 0.24835309229800653
0.2748803599150369 0.7818314824680298 0.3446890689359052
0.16106931014778114 0.7818314824680298 0.41039790915578417
0.03294654533286972 0.7818314824680298 0.4396410941456116
-0.09810366461839995 0.7818314824680298 0.4298202385874377
-0.2204369334474836 0.7818314824680298 0.381807968595721
-0.32318341336820944 0.7818314824680298 0.299870385057602
-0.39721362874412053 0.7818314824680298 0.1912880018476051
-0.43594967006281793 0.7818314824680298 0.06570884021987915
-0.43594967006281793 0.7818314824680298 -0.06570884021987904
-0.39721362874412053 0.7818314824680298 -0.19128800184760503
-0.3231834133682095 0.7818314824680298 -0.2998703850576019
-0.22043693344748388 0.7818314824680298 -0.38180796859572086
-0.09810366461840007 0.7818314824680298 -0.4298202385874377
0.032946545332869316 0.7818314824680298 -0.4396410941456117
0.16106931014778086 0.7818314824680298 -0.41039790915578434
0.2748803599150368 0.7818314824680298 -0.34468906893590523
0.3642670834112509 0.7818314824680298 -0.24835309229800653
0.4212870779866094 0.7818314824680298 -0.1299498535298361
0.5528383429982753 0.6234898018587336 0.0
0.5354699098543839 0.6234898018587336 0.13748530514064636
0.48445593295376926 0.6234898018587336 0.26633190292372344
0.40300180808138025 0.6234898018587336 0.378443887745881
0.296225597470265 0.6234898018587336 0.4667768512817052
0.17083644312855328 0.6234898018587336 0.5257805085663249
0.034713006772586534 0.6234898018587336 0.5517474428122753
-0.10359157546441067 0.6234898018587336 0.5430460560411796
-0.2353871180318143 0.6234898018587336 0.5002230883853277
-0.3523924222800152 0.6234898018587336 0.4259692643943951
-0.4472556146276908 0.6234898018587336 0.3249502249161941
-0.5140160918172201 0.6234898018587336 0.20351336772317874
-0.5484790475389246 0.6234898018587336 0.06928901716630594
-0.5484790475389247 0.6234898018587336 -0.0692890171663058
-0.5140160918172201 0.6234898018587336 -0.20351336772317885
-0.447255614627691 0.6234898018587336 -0.32495022491619396
-0.3523924222800151 0.6234898018587336 -0.4259692643943952
-0.235387118031814 0.6234898018587336 -0.5002230883853278
-0.10359157546441054 0.6234898018587336 -0.5430460560411796
0.03471300677258615 0.6234898018587336 -0.5517474428122753
0.17083644312855317 0.6234898018587336 -0.5257805085663249
0.2962255974702647 0.6234898018587336 -0.46677685128170543
0.4030018080813801 0.6234898018587336 -0.37844388774588117
0.48445593295376926 0.6234898018587336 -0.26633190292372344
0.5354699098543838 0.6234898018587336 -0.1374853051406467
0.6370811961317674 0.4338837391175582 0.0
0.6211082404350429 0.4338837391175582 0.14176390276924677
0.5739903240407576 0.4338837391175582 0.27641917149913764
0.4980901360242054 0.4338837391175582 0.39721362874412053
0.39721362874412064 0.4338837391175582 0.4980901360242054
0.27641917149913764 0.4338837391175582 0.5739903240407576
0.14176390276924683 0.4338837391175582 0.6211082404350429
3.90099723819868e-17 0.4338837391175582 0.6370811961317674
-0.14176390276924675 0.4338837391175582 0.6211082404350429
-0.2764191714991376 0.4338837391175582 0.5739903240407576
-0.39721362874412053 0.4338837391175582 0.49809013602420543
-0.4980901360242054 0.4338837391175582 0.39721362874412064
-0.5739903240407574 0.4338837391175582 0.2764191714991377
-0.6211082404350429 0.4338837391175582 0.14176390276924686
-0.6370811961317674 0.4338837391175582 7.80199447639736e-17
-0.6211082404350429 0.4338837391175582 -0.14176390276924672
-0.5739903240407576 0.4338837391175582 -0.27641917149913753
-0.49809013602420554 0.4338837391175582 -0.3972136287441203
-0.3972136287441207 0.4338837391175582 -0.49809013602420527
-0.27641917149913775 0.4338837391175582 -0.5739903240407574
-0.1417639027692469 0.4338837391175582 -0.6211082404350429
-1.170299171459604e-16 0.4338837391175582 -0.6370811961317674
0.1417639027692467 0.4338837391175582 -0.6211082404350429
0.27641917149913753 0.4338837391175582 -0.5739903240407576
0.39721362874412053 0.4338837391175582 -0.49809013602420543
0.49809013602420527 0.4338837391175582 -0.3972136287441207
0.5739903240407574 0.4338837391175582 -0.2764191714991378
0.6211082404350428 0.4338837391175582 -0.14176390276924694
0.6893781378718105 0.22252093395631445 0.0
0.67431357155765 0.22252093395631445 0.1433297742577265
0.6297782664509071 0.22252093395631445 0.2803953496078263
0.5577186290888502 0.22252093395631445 0.4052063026938974
0.46128401140470504 0.22252093395631445 0.5123077959566775
0.3446890689359053 0.22252093395631445 0.597018980210599
0.21302956015294497 0.22252093395631445 0.655637570214404
0.07205963736205687 0.22252093395631445 0.6856016523017238
-0.0720596373620568 0.22252093395631445 0.6856016523017239
-0.21302956015294494 0.22252093395631445 0.6556375702144042
-0.34468906893590506 0.22252093395631445 0.5970189802105991
-0.4612840114047049 0.22252093395631445 0.5123077959566777
-0.5577186290888501 0.22252093395631445 0.40520630269389746
-0.6297782664509072 0.22252093395631445 0.28039534960782625
-0.67431357155765 0.22252093395631445 0.1433297742577265
-0.6893781378718105 0.22252093395631445 8.442447299468754e-17
-0.67431357155765 0.22252093395631445 -0.14332977425772633
-0.6297782664509072 0.22252093395631445 -0.2803953496078261
-0.5577186290888503 0.22252093395631445 -0.4052063026938973
-0.4612840114047052 0.22252093395631445 -0.5123077959566774
-0.3446890689359055 0.22252093395631445 -0.5970189802105988
-0.21302956015294505 0.22252093395631445 -0.655637570214404
-0.07205963736205741 0.22252093395631445 -0.6856016523017238
0.07205963736205717 0.22252093395631445 -0.6856016523017238
0.21302956015294486 0.22252093395631445 -0.6556375702144042
0.3446890689359053 0.22252093395631445 -0.597018980210599
0.4612840114047052 0.22252093395631445 -0.5123077959566774
0.5577186290888501 0.22252093395631445 -0.40520630269389757
0.6297782664509072 0.22252093395631445 -0.2803953496078263
0.6743135715576499 0.22252093395631445 -0.1433297742577269
0.7071067811865476 6.123233995736766e-17 0.0
0.6926322638348994 6.123233995736766e-17 0.142339548597508
0.649801300221015 6.123233995736766e-17 0.2788516993512472
0.5803673950276713 6.123233995736766e-17 0.4039476287698629
0.4871731804916214 6.123233995736766e-17 0.5125058948048092
0.3740340387058261 6.123233995736766e-17 0.600082109289561
0.2455818994282809 6.123233995736766e-17 0.663090891713344
0.10707560833349393 6.123233995736766e-17 0.6989526551205112
-0.03581437074731608 6.123233995736766e-17 0.7061992147035947
-0.17723810528172124 6.123233995736766e-17 0.6845338954618285
-0.31140569096129944 6.123233995736766e-17 0.6348436781105374
-0.432824291064307 6.123233995736766e-17 0.5591628859864362
-0.5365230138364468 6.123233995736766e-17 0.46058989961120067
-0.6182564213833454 6.123233995736766e-17 0.3431603086288672
-0.6746783383967645 6.123233995736766e-17 0.21168169429164382
-0.7034788449648814 6.123233995736766e-17 0.07153680651857747
-0.7034788449648814 6.123233995736766e-17 -0.0715368065185773
-0.6746783383967647 6.123233995736766e-17 -0.21168169429164335
-0.6182564213833452 6.123233995736766e-17 -0.34316030862886737
-0.5365230138364471 6.123233995736766e-17 -0.4605898996112005
-0.4328242910643068 6.123233995736766e-17 -0.5591628859864362
-0.3114056909612999 6.123233995736766e-17 -0.6348436781105373
-0.17723810528172113 6.123233995736766e-17 -0.6845338954618285
-0.035814370747316096 6.123233995736766e-17 -0.7061992147035947
0.1070756083334939 6.123233995736766e-17 -0.6989526551205112
0.24558189942828032 6.123233995736766e-17 -0.6630908917133442
0.3740340387058261 6.123233995736766e-17 -0.6000821092895611
0.4871731804916213 6.123233995736766e-17 -0.5125058948048092
0.5803673950276713 6.123233995736766e-17 -0.40394762876986295
0.649801300221015 6.123233995736766e-17 -0.2788516993512473
0.6926322638348994 6.123233995736766e-17 -0.14233954859750816
0.6893781378718105 -0.22252093395631434 0.0
0.67431357155765 -0.22252093395631434 0.1433297742577265
0.6297782664509071 -0.22252093395631434 0.2803953496078263
0.5577186290888502 -0.22252093395631434 0.4052063026938974
0.46128401140470504 -0.22252093395631434 0.5123077959566775
0.3446890689359053 -0.22252093395631434 0.597018980210599
0.21302956015294497 -0.22252093395631434 0.655637570214404
0.07205963736205687 -0.22252093395631434 0.6856016523017238
-0.0720596373620568 -0.22252093395631434 0.6856016523017239
-0.21302956015294494 -0.22252093395631434 0.6556375702144042
-0.34468906893590506 -0.22252093395631434 0.5970189802105991
-0.4612840114047049 -0.22252093395631434 0.5123077959566777
-0.5577186290888501 -0.22252093395631434 0.40520630269389746
-0.6297782664509072 -0.22252093395631434 0.28039534960782625
-0.67431357155765 -0.22252093395631434 0.1433297742577265
-0.6893781378718105 -0.22252093395631434 8.442447299468754e-17
-0.67431357155765 -0.22252093395631434 -0.14332977425772633
-0.6297782664509072 -0.22252093395631434 -0.2803953496078261
-0.5577186290888503 -0.22252093395631434 -0.4052063026938973
-0.4612840114047052 -0.22252093395631434 -0.5123077959566774
-0.3446890689359055 -0.22252093395631434 -0.5970189802105988
-0.21302956015294505 -0.22252093395631434 -0.655637570214404
-0.07205963736205741 -0.22252093395631434 -0.6856016523017238
0.07205963736205717 -0.22252093395631434 -0.6856016523017238
0.21302956015294486 -0.22252093395631434 -0.6556375702144042
0.3446890689359053 -0.22252093395631434 -0.597018980210599
0.4612840114047052 -0.22252093395631434 -0.5123077959566774
0.5577186290888501 -0.22252093395631434 -0.40520630269389757
0.6297782664509072 -0.22252093395631434 -0.2803953496078263
0.6743135715576499 -0.22252093395631434 -0.1433297742577269
0.6370811961317674 -0.43388373911755806 0.0
0.6211082404350429 -0.43388373911755806 0.14176390276924677
0.5739903240407576 -0.43388373911755806 0.27641917149913764
0.4980901360242054 -0.43388373911755806 0.39721362874412053
0.39721362874412064 -0.43388373911755806 0.4980901360242054
0.27641917149913764 -0.43388373911755806 0.5739903240407576
0.14176390276924683 -0.43388373911755806 0.6211082404350429
3.90099723819868e-17 -0.43388373911755806 0.6370811961317674
-0.14176390276924675 -0.43388373911755806 0.6211082404350429
-0.2764191714991376 -0.43388373911755806 0.5739903240407576
-0.39721362874412053 -0.43388373911755806 0.49809013602420543
-0.4980901360242054 -0.43388373911755806 0.39721362874412064
-0.5739903240407574 -0.43388373911755806 0.2764191714991377
-0.6211082404350429 -0.43388373911755806 0.14176390276924686
-0.6370811961317674 -0.43388373911755806 7.80199447639736e-17
-0.6211082404350429 -0.43388373911755806 -0.14176390276924672
-0.5739903240407576 -0.43388373911755806 -0.27641917149913753
-0.49809013602420554 -0.43388373911755806 -0.3972136287441203
-0.3972136287441207 -0.43388373911755806 -0.49809013602420527
-0.27641917149913775 -0.43388373911755806 -0.5739903240407574
-0.1417639027692469 -0.43388373911755806 -0.6211082404350429
-1.170299171459604e-16 -0.43388373911755806 -0.6370811961317674
0.1417639027692467 -0.43388373911755806 -0.6211082404350429
0.27641917149913753 -0.43388373911755806 -0.5739903240407576
0.39721362874412053 -0.43388373911755806 -0.49809013602420543
0.49809013602420527 -0.43388373911755806 -0.3972136287441207
0.5739903240407574 -0.43388373911755806 -0.2764191714991378
0.6211082404350428 -0.43388373911755806 -0.14176390276924694
0.5528383429982753 -0.6234898018587335 0.0
0.5354699098543839 -0.6234898018587335 0.13748530514064639
0.4844559329537694 -0.6234898018587335 0.26633190292372344
0.4030018080813803 -0.6234898018587335 0.3784438877458811
0.29622559747026506 -0.6234898018587335 0.46677685128170526
0.1708364431285533 -0.6234898018587335 0.525780508566325
0.03471300677258654 -0.6234898018587335 0.5517474428122754
-0.10359157546441067 -0.6234898018587335 0.5430460560411796
-0.23538711803181434 -0.6234898018587335 0.5002230883853278
-0.35239242228001527 -0.6234898018587335 0.4259692643943952
-0.4472556146276909 -0.6234898018587335 0.32495022491619413
-0.5140160918172202 -0.6234898018587335 0.20351336772317877
-0.5484790475389247 -0.6234898018587335 0.06928901716630595
-0.5484790475389248 -0.6234898018587335 -0.06928901716630581
-0.5140160918172202 -0.6234898018587335 -0.20351336772317885
-0.4472556146276911 -0.6234898018587335 -0.324950224916194
-0.35239242228001516 -0.6234898018587335 -0.42596926439439525
-0.23538711803181403 -0.6234898018587335 -0.5002230883853279
-0.10359157546441057 -0.6234898018587335 -0.5430460560411796
0.03471300677258616 -0.6234898018587335 -0.5517474428122754
0.1708364431285532 -0.6234898018587335 -0.525780508566325
0.2962255974702647 -0.6234898018587335 -0.4667768512817055
0.4030018080813801 -0.6234898018587335 -0.3784438877458812
0.4844559329537694 -0.6234898018587335 -0.26633190292372344
0.5354699098543839 -0.6234898018587335 -0.1374853051406467
0.44087386689496744 -0.7818314824680298 0.0
0.42128707798660964 -0.7818314824680298 0.12994985352983587
0.36426708341125097 -0.7818314824680298 0.2483530922980066
0.27488035991503695 -0.7818314824680298 0.34468906893590523
0.16106931014778117 -0.7818314824680298 0.4103979091557842
0.03294654533286973 -0.7818314824680298 0.4396410941456117
-0.09810366461839998 -0.7818314824680298 0.4298202385874378
-0.22043693344748364 -0.7818314824680298 0.381807968595721
-0.3231834133682095 -0.7818314824680298 0.29987038505760205
-0.39721362874412064 -0.7818314824680298 0.19128800184760514
-0.435949670062818 -0.7818314824680298 0.06570884021987916
-0.435949670062818 -0.7818314824680298 -0.06570884021987905
-0.39721362874412064 -0.7818314824680298 -0.19128800184760505
-0.32318341336820955 -0.7818314824680298 -0.29987038505760194
-0.2204369334474839 -0.7818314824680298 -0.38180796859572097
-0.09810366461840007 -0.7818314824680298 -0.4298202385874378
0.03294654533286932 -0.7818314824680298 -0.43964109414561175
0.1610693101477809 -0.7818314824680298 -0.4103979091557844
0.27488035991503684 -0.7818314824680298 -0.3446890689359053
0.36426708341125097 -0.7818314824680298 -0.2483530922980066
0.42128707798660947 -0.7818314824680298 -0.12994985352983612
0.30680213417660035 -0.900968867902419 0.0
0.280277696072089 -0.900968867902419 0.12478767014348165
0.2052906980737804 -0.900968867902419 0.22799841845876173
0.09480707337107237 -0.900968867902419 0.2917861689219158
-0.03206955561271642 -0.900968867902419 0.3051214399843439
-0.15340106708830012 -0.900968867902419 0.2656984421322179
-0.2482081404593725 -0.900968867902419 0.18033376984086227
-0.3000977714448527 -0.900968867902419 0.06378775046315403
-0.3000977714448527 -0.900968867902419 -0.06378775046315396
-0.2482081404593726 -0.900968867902419 -0.1803337698408622
-0.1534010670883003 -0.900968867902419 -0.2656984421322177
-0.032069555612716696 -0.900968867902419 -0.3051214399843439
0.09480707337107232 -0.900968867902419 -0.29178616892191583
0.20529069807378042 -0.900968867902419 -0.22799841845876168
0.280277696072089 -0.900968867902419 -0.12478767014348165
0.1573460613564739 -0.9749279121818236 0.0
0.11126046697815727 -0.9749279121818236 0.11126046697815725
9.63466751993244e-18 -0.9749279121818236 0.1573460613564739
-0.11126046697815725 -0.9749279121818236 0.11126046697815727
-0.1573460613564739 -0.9749279121818236 1.926933503986488e-17
-0.1112604669781573 -0.9749279121818236 -0.11126046697815725
-2.8904002559797314e-17 -0.9749279121818236 -0.1573460613564739
0.11126046697815722 -0.9749279121818236 -0.1112604669781573
8.659560562354934e-17 -1.0 0.0
3 238 239 260
3 228 227 201
3 261 260 239
3 280 266 267
3 251 228 252
3 251 227 228
3 251 252 270
3 251 270 269
3 200 201 227
3 200 227 226
3 199 200 226
3 199 170 200
3 169 168 138
3 169 170 199
3 111 82 83
3 111 83 112
3 81 55 82
3 81 54 55
3 80 54 81
3 80 81 109
3 108 138 107
3 108 80 109
3 139 169 138
3 139 170 169
3 139 138 108
3 139 108 109
3 157 188 187
3 126 127 157
3 33 16 34
3 33 15 16
3 32 15 33
3 32 55 54
3 32 33 55
3 105 136 135
3 79 108 107
3 79 80 108
3 283 284 286
3 255 272 254
3 255 254 232
3 149 179 148
3 205 176 177
3 213 239 238
3 213 238 212
3 214 213 185
3 214 239 213
3 90 63 91
3 90 120 119
3 90 91 120
3 118 149 148
3 118 119 149
3 61 60 37
3 61 87 60
3 61 88 87
3 97 127 126
3 6 0 7
3 64 91 63
3 229 252 228
3 229 203 230
3 277 261 262
3 242 241 217
3 242 262 241
3 282 283 286
3 268 280 267
3 279 266 280
3 279 280 286
3 271 254 272
3 271 282 270
3 271 272 283
3 271 283 282
3 250 251 269
3 250 269 268
3 250 268 249
3 250 227 251
3 250 226 227
3 250 249 226
3 113 144 143
3 113 143 112
3 248 268 267
3 248 249 268
3 195 196 223
3 137 107 138
3 137 138 168
3 140 139 109
3 140 170 139
3 156 157 187
3 156 125 126
3 156 126 157
3 158 188 157
3 158 157 127
3 158 98 128
3 158 127 98
3 27 48 26
3 27 26 11
3 5 0 6
3 14 13 3
3 14 15 32
3 129 128 98
3 159 189 188
3 159 160 189
3 159 158 128
3 159 188 158
3 159 128 129
3 159 129 160
3 218 191 219
3 218 219 243
3 218 242 217
3 218 243 242
3 102 74 103
3 133 134 164
3 133 103 134
3 133 102 103
3 133 132 102
3 163 133 164
3 163 132 133
3 56 55 33
3 56 82 55
3 56 83 82
3 56 33 34
3 12 13 29
3 12 3 13
3 52 51 29
3 275 284 274
3 150 149 119
3 150 120 151
3 150 119 120
3 146 176 145
3 146 177 176
3 233 255 232
3 233 234 256
3 233 256 255
3 207 179 208
3 207 208 234
3 207 234 233
3 231 205 232
3 231 232 254
3 204 176 205
3 204 230 203
3 204 231 230
3 204 205 231
3 175 204 203
3 175 176 204
3 175 144 145
3 175 145 176
3 216 189 217
3 216 217 241
3 216 241 215
3 216 188 189
3 216 215 187
3 216 187 188
3 240 262 261
3 240 241 262
3 240 261 239
3 240 215 241
3 240 239 214
3 240 214 215
3 182 211 210
3 182 151 152
3 123 93 94
3 121 120 91
3 121 152 151
3 121 151 120
3 89 118 88
3 89 90 119
3 89 119 118
3 36 18 37
3 36 37 60
3 17 16 5
3 17 18 36
3 17 36 35
3 17 6 18
3 17 5 6
3 38 61 37
3 20 7 21
3 70 98 127
3 70 127 97
3 95 94 67
3 2 0 3
3 2 1 0
3 2 12 11
3 2 3 12
3 8 7 0
3 8 0 1
3 8 21 7
3 10 11 26
3 10 2 11
3 10 1 2
3 92 91 64
3 92 121 91
3 65 93 92
3 65 92 64
3 202 203 229
3 202 201 172
3 202 228 201
3 202 229 228
3 276 260 261
3 276 261 277
3 263 242 243
3 263 277 262
3 263 262 242
3 222 195 223
3 281 268 269
3 281 280 268
3 281 269 270
3 281 270 282
3 281 286 280
3 281 282 286
3 265 266 279
3 285 286 284
3 285 276 277
3 285 284 275
3 285 275 276
3 253 254 271
3 253 231 254
3 253 230 231
3 247 267 266
3 247 248 267
3 247 222 223
3 224 223 196
3 224 247 223
3 224 248 247
3 167 137 168
3 167 136 137
3 165 164 134
3 165 134 135
3 142 112 143
3 142 111 112
3 110 140 109
3 110 109 81
3 110 82 111
3 110 81 82
3 171 170 140
3 171 200 170
3 171 201 200
3 171 172 201
3 186 156 187
3 186 214 185
3 186 187 215
3 186 215 214
3 4 15 14
3 4 14 3
3 4 16 15
3 4 5 16
3 4 3 0
3 4 0 5
3 190 191 218
3 190 189 160
3 190 217 189
3 190 218 217
3 190 160 161
3 190 161 191
3 75 103 74
3 104 76 105
3 104 134 103
3 104 103 75
3 104 75 76
3 104 135 134
3 104 105 135
3 193 163 164
3 28 12 29
3 30 52 29
3 30 29 13
3 30 13 14
3 78 79 107
3 259 238 260
3 209 234 208
3 273 283 272
3 273 272 255
3 273 255 256
3 273 284 283
3 273 274 284
3 115 146 145
3 115 116 146
3 117 88 118
3 117 87 88
3 117 116 87
3 117 118 148
3 147 146 116
3 147 117 148
3 147 116 117
3 147 177 146
3 178 179 207
3 178 148 179
3 178 147 148
3 178 177 147
3 206 205 177
3 206 177 178
3 206 178 207
3 206 232 205
3 206 233 232
3 206 207 233
3 183 182 152
3 183 212 211
3 183 211 182
3 153 123 154
3 153 183 152
3 124 123 94
3 124 95 125
3 124 94 95
3 124 154 123
3 62 88 61
3 62 89 88
3 62 61 38
3 62 63 90
3 62 90 89
3 62 39 63
3 62 38 39
3 57 56 34
3 57 83 56
3 84 112 83
3 84 113 112
3 84 57 58
3 84 83 57
3 59 58 35
3 59 35 36
3 59 36 60
3 40 39 20
3 40 21 41
3 40 20 21
3 40 41 65
3 40 65 64
3 40 63 39
3 40 64 63
3 19 6 7
3 19 7 20
3 19 18 6
3 19 37 18
3 19 38 37
3 19 39 38
3 19 20 39
3 45 70 97
3 45 97 69
3 96 69 97
3 96 97 126
3 96 126 125
3 96 125 95
3 23 8 1
3 66 41 42
3 66 65 41
3 66 42 67
3 66 67 94
3 66 94 93
3 66 93 65
3 173 202 172
3 173 142 143
3 173 172 142
3 173 203 202
3 221 245 220
3 221 220 193
3 244 245 265
3 244 243 219
3 244 220 245
3 244 219 220
3 264 265 279
3 264 263 243
3 264 243 244
3 264 244 265
3 278 264 279
3 278 263 264
3 278 279 286
3 278 286 285
3 278 277 263
3 278 285 277
3 246 222 247
3 246 245 221
3 246 221 222
3 246 247 266
3 225 249 248
3 225 248 224
3 225 226 249
3 225 199 226
3 197 224 196
3 197 167 168
3 197 196 167
3 197 225 224
3 166 167 196
3 166 196 195
3 166 195 165
3 166 165 135
3 166 135 136
3 166 136 167
3 141 142 172
3 141 172 171
3 141 171 140
3 141 111 142
3 141 110 111
3 141 140 110
3 49 74 48
3 49 75 74
3 49 27 28
3 49 48 27
3 71 45 46
3 71 70 45
3 99 129 98
3 99 71 100
3 99 98 70
3 99 70 71
3 47 26 48
3 73 74 102
3 73 48 74
3 73 47 48
3 192 163 193
3 192 193 220
3 192 220 219
3 192 219 191
3 31 14 32
3 31 30 14
3 31 32 54
3 106 78 107
3 106 136 105
3 106 107 137
3 106 137 136
3 237 238 259
3 237 211 212
3 237 212 238
3 258 259 275
3 258 275 274
3 258 237 259
3 180 208 179
3 180 209 208
3 180 179 149
3 180 149 150
3 86 87 116
3 86 116 115
3 86 60 87
3 86 59 60
3 184 154 185
3 184 212 183
3 184 153 154
3 184 183 153
3 184 185 213
3 184 213 212
3 122 123 153
3 122 121 92
3 122 152 121
3 122 153 152
3 122 93 123
3 122 92 93
3 155 154 124
3 155 185 154
3 155 125 156
3 155 124 125
3 155 186 185
3 155 156 186
3 85 86 115
3 85 84 58
3 85 58 59
3 85 59 86
3 25 10 26
3 25 47 46
3 25 26 47
3 68 69 96
3 68 44 69
3 68 95 67
3 68 96 95
3 22 21 8
3 22 8 23
3 43 23 44
3 43 44 68
3 43 42 22
3 43 22 23
3 43 67 42
3 43 68 67
3 9 1 10
3 9 23 1
3 9 44 23
3 9 10 25
3 174 175 203
3 174 203 173
3 174 144 175
3 174 143 144
3 174 173 143
3 194 221 193
3 194 193 164
3 194 195 222
3 194 222 221
3 194 164 165
3 194 165 195
3 198 199 225
3 198 225 197
3 198 169 199
3 198 168 169
3 198 197 168
3 50 49 28
3 50 29 51
3 50 28 29
3 50 51 76
3 50 76 75
3 50 75 49
3 130 100 131
3 130 129 99
3 130 99 100
3 130 131 161
3 130 161 160
3 130 160 129
3 101 73 102
3 101 131 100
3 101 102 132
3 101 132 131
3 72 100 71
3 72 101 100
3 72 73 101
3 72 47 73
3 72 71 46
3 72 46 47
3 162 163 192
3 162 161 131
3 162 191 161
3 162 192 191
3 162 132 163
3 162 131 132
3 53 52 30
3 53 30 31
3 53 31 54
3 53 54 80
3 53 80 79
3 53 79 78
3 53 78 52
3 77 105 76
3 77 106 105
3 77 78 106
3 77 76 51
3 77 51 52
3 77 52 78
3 257 258 274
3 257 274 273
3 257 273 256
3 257 256 234
3 236 237 258
3 236 210 211
3 236 211 237
3 181 210 209
3 181 209 180
3 181 182 210
3 181 151 182
3 181 150 151
3 181 180 150
3 114 85 115
3 114 115 145
3 114 113 84
3 114 84 85
3 114 145 144
3 114 144 113
3 24 44 9
3 24 9 25
3 24 69 44
3 24 45 69
3 24 46 45
3 24 25 46
3 235 257 234
3 235 234 209
3 235 258 257
3 235 236 258
3 235 209 210
3 235 210 236
3 17 35 34
3 17 34 16
3 253 271 270
3 253 270 252
3 253 252 229
3 253 229 230
3 28 11 12
3 28 27 11
3 259 276 275
3 259 260 276
3 57 34 35
3 57 35 58
3 246 265 245
3 246 266 265
3 22 42 41
3 22 41 21
